/* XPM */
static char *result[] = {
/* columns rows colors chars-per-pixel */
"80 80 62 1 ",
"  c #FFFF00",
". c none",
"X c none",
"o c none",
"O c none",
"+ c none",
"@ c none",
"# c none",
"$ c none",
"% c none",
"& c none",
"* c none",
"= c none",
"- c none",
"; c none",
": c none",
"> c none",
", c none",
"< c none",
"1 c none",
"2 c none",
"3 c none",
"4 c none",
"5 c none",
"6 c none",
"7 c none",
"8 c none",
"9 c none",
"0 c none",
"q c none",
"w c none",
"e c none",
"r c none",
"t c none",
"y c none",
"u c none",
"i c none",
"p c none",
"a c none",
"s c none",
"d c none",
"f c none",
"g c none",
"h c none",
"j c none",
"k c none",
"l c none",
"z c none",
"x c none",
"c c none",
"v c none",
"b c none",
"n c none",
"m c none",
"M c none",
"N c none",
"B c none",
"V c none",
"C c none",
"Z c none",
"A c none",
"S c none",
/* pixels */
"xbSbZCbSbCSxSbCSxSCbSbCSbSbBSbSbMSxSCbSbCCbSbCSxSCbSxSCxSbCSxSbbSxSCbSbCZbSbCSxS",
"xbSbZCbSbCSxSbCSxSCbSbCSbSbBSbSbMSxSCbSbCCbSbCSxSCbSxSCxSbCSxSbbSxSCbSbCZbSbCSxS",
"xbSbZCbSbCSxSbCSxSCbSbCSbSbBSbSbMSxSCbSbCCbSbCSxSCbSxSCxSbCSxSbbSxSCbSbCZbSbCSxS",
"xbSbZCbSbCSxSbCSxSCbSbCSbSbBSbSbMSxSCbSbCCbSbCSxSCbSxSCxSbCSxSbbSxSCbSbCZbSbCSxS",
"xbSbZCbSbCSxSbCSxSCbSbCSbSbBSbSbMSxSCbSbCCbSbCSxSCbSxSCxSbCSxSbbSxSCbSbCZbSbCSxS",
"xbSbZCbSbCSxSbCSxSCbSbCSbSbBSbSbMSxSCbSbCCbSbCSxSCbSxSCxSbCSxSbbSxSCbSbCZbSbCSxS",
"xbSbZCbSbCSxSbCSxSCbSbCSbSbBSbSbMSxSCbSbCCbSbCSxSCbSxSCxSbCSxSbbSxSCbSbCZbSbCSxS",
"xbSbZCbSbCSxSbCSxSCbSbCSbSbBSbSbMSxSCbSbCCbSbCSxSCbSxSCxSbCSxSbbSxSCbSbCZbSbCSxS",
"xbSbZCbSbCSxSbCSxSCbSbCSbSbBSbSbMSxSCbSbCCbSbCSxSCbSxSCxSbCSxSbbSxSCbSbCZbSbCSxS",
"xbSbZCbSbCSxSbCSxSCbSbCSbSbBSbSbMSxSCbSbCCbSbCSxSCbSxSCxSbCSxSbbSxSCbSbCZbSbCSxS",
"xbSbZCbSbCSxSbCSxSCbSbCSbSbBSbSbMSxSCbSbCCbSbCSxSCbSxSCxSbCSxSbbSxSCbSbCZbSbCSxS",
"xbSbZCbSbCSxSbCSxSCbSbCSbSbBSbSbMSxSCbSbCCbSbCSxSCbSxSCxSbCSxSbbSxSCbSbCZbSbCSxS",
"xbSbZCbSbCSxSbCSxSCbSbCSbSbBSbSbMSxSCbSbCCbSbCSxSCbSxSCxSbCSxSbbSxSCbSbCZbSbCSxS",
"xbSbZCbSbCSxSbCSxSCbSbCSbSbBSbSbMSxSCbSbCCbSbCSxSCbSxSCxSbCSxSbbSxSCbSbCZbSbCSxS",
"xbSbZCbSbCSxSbCSxSCbSbCSbSbBSbSbMSxSCbSbCCbSbCSxSCbSxSCxSbCSxSbbSxSCbSbCZbSbCSxS",
"xbSbZCbSbCSxSbCSxSCbSbCSbSbBSbSbMSxSCbSbCCbSbCSxSCbSxSCxSbCSxSbbSxSCbSbCZbSbCSxS",
"SSxSbbSxSCbSbSCbSbCSxSCbSxSCBSxjyx           CbSbCSxSCbSvSCbSxZAvSbCSxSCbSbSCxSb",
"SCbSCCSbCCbSbCCbSbCCbSBMSbACu<+                 o;icACbSbCCbCCCZbACbZBCCMCCCCbCC",
"xbSbCCbSbCSxSbbSxSCbSbCCBSe@                       +7MSvSCbSbCCbSbCSxSMBSbSCbSvA",
"SCbSCbSbSCbSbSCbSbCSbSCVk%                           @uSbCSbSbCSbSCbSbSCxSbCSbSM",
"MCCbCCMACCCBZCBCbSCBZBA0.                              2CCCCBCCBZbCCbZCBCMACCAbC",
"CBCCCCbCbCCMCCCCbCCMAb<                                 *nCCCCCMCCCCCCCCCCCCMCMC",
"SCbSCCSbSCbSbCCbSbCAb;                                    #mbSbCSbSCbSbCCbSbCAbS",
"xbSbSCbSbCSbSbCSbSCB>                                     %NbCCbSbCSvSBMSxSCbSbC",
"SCbSCbAbCCMSbCAbAbA6                                       ;SbBZbACbSbCCbSbCZbZB",
"CCCCCCCCCCCCCCCCCCp.                                        0ACCCCCCCCCCCCCCCCCC",
"bbCbCCbSbCCbSCMABN+                                         .jAbSbCCbZMCCbCCbSbC",
"SSbSBMSbSCbSbCCbS4                                           &VSxSCbSbACbSbCSvSB",
"xbSbCCbSbCAbSbCSgX                                            uVSbCSbSMCSbCCbSbC",
"SCCCCBCMCCCZbCCV4                                             *AbCCCAbCCCCCCCbCC",
"SCbCCCCbCCCCCCCco                                             .dBCCbCBCCMACCCCCC",
"bbSbZCbSbCCbSbAy                                               4SbCSbSMBSbCCbSbS",
"SZvSBCSxSCbSbCS=                                               @cSCbSbCAvSbCSvSb",
"bBSbCCbSbCCbSCcO                                                fBCAbZCMSbZCbSbC",
"CCCCCCCCCCCCCCa                                                 9ACCCCCCCCBMCCCC",
"SCbZbBZbACbSbAw                                                 :ACbSbCCbSbCAbZC",
"xbSbZCbSbCZvSV,                                                 %BCSxSbCSxSCbSbC",
"SCbSBCSbSCbSbA-                                                 +ZCbSbCCbSbCSbSB",
"CCSbCCbCbCCCAC#                                                 onACMCCCCCCCCCMC",
"BMCCCCBZCCCBCC@                                                 XlCCBAMBCCCCCCBC",
"SAbSCbSbSMbSbC#                                                 .mCbSbCCbSbCAxSM",
"xbSxSCbSbCSvSB@                                                 ohCAbSbCSvSCbSbC",
"SCbSBbZbZCbSbA*                                                 ONCbSbCCbZbCSbZB",
"CCCCCCCCCBCCCA:                                                 @CCCCCCCCCCCCCCC",
"bMSbCCbSbCCbSA3                                                 -VCCbAMCCbCCbSbC",
"SCxSbCSbSCbSbAi                                                 3SCbSbCCbSbCSbSB",
"bCSbCCbSbCAbSBjX                                                pBCCbSCbSbSCbSbC",
"CCbSCCCbCCMAbCC@                                               XhACCCCCCCCbCCCCM",
"SCCCCCAMCCCCMCA4                                               -BCCbCbCCMAMCCCCC",
"xbSbCCbSbCAbSBVk.                                              eSbCSbSbCSbACbSbC",
"SSxSbMSxSCbSbACB*                                             ONbSCbSbSCxSbCSxSC",
"bMSbCAbSbCZbSbBSt                                             5VAbCZbAMCSbCCbSbC",
"BCCCCCCCCCCCCCCCC$                                           onCCCCCCCCCCCCCCCCC",
"SCbSMCAbZCbAbCCbSa.                                          9AAbCCbSbCCbSbCCbCC",
"bbSbACbSbCSxSbbSbA2                                         &ACbSbCSbSbCSxSCbSbC",
"SCxSMbSbACMSbSCbSbN#                                       ozVMSbSCbSbCCbSbCSbSB",
"bCACCCMAMCCCCCCCBCCjO                                     .pCCCbCMCCbCCCZBCCCCMC",
"bMZbCCCCbCCBCMCCMCCVaX                                   .rABCCBCBCCbSbCCbCCMSBC",
"SAbSBMSbSCbSbCCbSbCSBso                                 .rSbSCMSbSCbSbCCbSbCSbSC",
"vbSbCCbSbCAbSBCSbACbSBj#                               opAbSbCCbSbCSbSbCSxSCbSvC",
"SCbCCMAbCCbZbCCbSbCCbCCM2                             &zVCCbSMCAbCCbSbCCbCbCCbCC",
"CCCCCCCCCCCCCCCCCCCCCCBCAu%                         +eCACCCCCCCCCCCCCCCCCCCCCCCC",
"bbSbSCbSbCAbSbCSbCCbSbCCbSbu-X                   .%rbAZbCCbSbCCbSbCCbSbCSbCCbSbC",
"SSbSbbSxSCbSbZCbSbCSbSbCSbSABmq<#             bSbCSvSbBSbSCbSbZCbSbCSbSCbSbSCbSb",
"bbSbCCbSbCAbSBMSbACbSbCCbSbCSbAVbZgmlcSVAAbSbCSbSCbSbCCbSbCCbSbCSbACbSbCCbSbCCbS",
"CCCCCCCCCCCCMCCBCCCCCCCMCCCCCCCCCBACCCCCCCCBCCbCbCCCCbCCCCCCCCCCMCCCCbCCCCCCCCCC",
"SZbCCBAbCCbZCCCbCMCAbCCCAMCCCCbCCBCCCCbSCCZbCCbSCCCbSCCCbZCBSCCCCSbCCCCCCCbCCbSB",
"xbSbZCbSbCSxSbCSxSCbSbCSbSbBSbSbMSxSCbSbCCbSbCSxSCbSxSCxSbCSxSbbSxSCbSbCZbSbCSxS",
"xbSbZCbSbCSxSbCSxSCbSbCSbSbBSbSbMSxSCbSbCCbSbCSxSCbSxSCxSbCSxSbbSxSCbSbCZbSbCSxS",
"xbSbZCbSbCSxSbCSxSCbSbCSbSbBSbSbMSxSCbSbCCbSbCSxSCbSxSCxSbCSxSbbSxSCbSbCZbSbCSxS",
"xbSbZCbSbCSxSbCSxSCbSbCSbSbBSbSbMSxSCbSbCCbSbCSxSCbSxSCxSbCSxSbbSxSCbSbCZbSbCSxS",
"xbSbZCbSbCSxSbCSxSCbSbCSbSbBSbSbMSxSCbSbCCbSbCSxSCbSxSCxSbCSxSbbSxSCbSbCZbSbCSxS",
"xbSbZCbSbCSxSbCSxSCbSbCSbSbBSbSbMSxSCbSbCCbSbCSxSCbSxSCxSbCSxSbbSxSCbSbCZbSbCSxS",
"xbSbZCbSbCSxSbCSxSCbSbCSbSbBSbSbMSxSCbSbCCbSbCSxSCbSxSCxSbCSxSbbSxSCbSbCZbSbCSxS",
"xbSbZCbSbCSxSbCSxSCbSbCSbSbBSbSbMSxSCbSbCCbSbCSxSCbSxSCxSbCSxSbbSxSCbSbCZbSbCSxS",
"xbSbZCbSbCSxSbCSxSCbSbCSbSbBSbSbMSxSCbSbCCbSbCSxSCbSxSCxSbCSxSbbSxSCbSbCZbSbCSxS",
"xbSbZCbSbCSxSbCSxSCbSbCSbSbBSbSbMSxSCbSbCCbSbCSxSCbSxSCxSbCSxSbbSxSCbSbCZbSbCSxS",
"xbSbZCbSbCSxSbCSxSCbSbCSbSbBSbSbMSxSCbSbCCbSbCSxSCbSxSCxSbCSxSbbSxSCbSbCZbSbCSxS",
"xbSbZCbSbCSxSbCSxSCbSbCSbSbBSbSbMSxSCbSbCCbSbCSxSCbSxSCxSbCSxSbbSxSCbSbCZbSbCSxS",
"xbSbZCbSbCSxSbCSxSCbSbCSbSbBSbSbMSxSCbSbCCbSbCSxSCbSxSCxSbCSxSbbSxSCbSbCZbSbCSxS",
"xbSbZCbSbCSxSbCSxSCbSbCSbSbBSbSbMSxSCbSbCCbSbCSxSCbSxSCxSbCSxSbbSxSCbSbCZbSbCSxS"
};
