/* XPM */
static char *result[] = {
/* columns rows colors chars-per-pixel */
"80 76 19 1 ",
"  c #FFCB00",
". c #FFCC00",
"X c #FFCD00",
"o c #FFCE00",
"O c #FFCF00",
"+ c #FFD000",
"@ c #FFD100",
"# c #FFD200",
"$ c #FFD300",
"% c #FFD400",
"& c #FFD500",
"* c #FFD600",
"= c gold",
"- c #FFD800",
"; c #FFD900",
": c #FFDA00",
"> c #FFDB00",
", c #FFDD00",
"< c None",
/* pixels */
"<<<<<<<<<<<<<<<<<<<<<<<<<<<<<<<<<<<<<<<<<<<<<<<<<<<<<<<<<<<<<<<<<<<<<<<<<<<<<<<<",
"<<<<<<<<<<<<<<<<<<<<<<<<<<<<<<<<<.X ..XX.X.XXX<<<<<<<<<<<<<<<<<<<<<<<<<<<<<<<<<<",
"<<<<<<<<<<<<<<<<<<<<<<<<<<<<<o.o*=&#+OooooO@$*=$XX.<<<<<<<<<<<<<<<<<<<<<<<<<<<<<",
"<<<<<<<<<<<<<<<<<<<<<<<<<<OX&-#o................o$;@X+<<<<<<<<<<<<<<<<<<<<<<<<<<",
"<<<<<<<<<<<<<<<<<<<<<<<<o#>#.......................X$>+O<<<<<<<<<<<<<<<<<<<<<<<<",
"<<<<<<<<<<<<<<<<<<<<<<O-=X ...........................o;$X<<<<<<<<<<<<<<<<<<<<<<",
"<<<<<<<<<<<<<<<<<<<<O&*. .............................. o;o@<<<<<<<<<<<<<<<<<<<<",
"<<<<<<<<<<<<<<<<<<oo-X .................................. O;O<<<<<<<<<<<<<<<<<<<",
"<<<<<<<<<<<<<<<<<O-@ .......................................$%+<<<<<<<<<<<<<<<<<",
"<<<<<<<<<<<<<<<<o&X..........................................o-+<<<<<<<<<<<<<<<<",
"<<<<<<<<<<<<<<@%@.............................................X$+O<<<<<<<<<<<<<<",
"<<<<<<<<<<<<<@$O................................................@#+<<<<<<<<<<<<<",
"<<<<<<<<<<<<#&o..................................................+$o<<<<<<<<<<<<",
"<<<<<<<<<<<@$o....................................................+$o<<<<<<<<<<<",
"<<<<<<<<<<o#O......................................................@@o<<<<<<<<<<",
"<<<<<<<<<<+O........................................................##<<<<<<<<<<",
"<<<<<<<<<+@..........................................................%@<<<<<<<<<",
"<<<<<<<<@*............................................................%@<<<<<<<<",
"<<<<<<<+*X............................................................++<<<<<<<<",
"<<<<<<<+@..............................................................&@<<<<<<<",
"<<<<<<+; ...............................................................;O<<<<<<",
"<<<<<<&o................................................................@+<<<<<<",
"<<<<<@= ................................................................ >@<<<<<",
"<<<<<=...................................................................++<<<<<",
"<<<<O- .................................................................. >#<<<<",
"<<<<+o....................................................................#o<<<<",
"<<<@> .....................................................................-<<<<",
"<<<O$..................................................................... -+<<<",
"<<<#X......................................................................+X<<<",
"<<+- .......................................................................-<<<",
"<<O#........................................................................=O<<",
"<<oo........................................................................#o<<",
"<<$.........................................................................oX<<",
"<<=..........................................................................#<<",
"<O&..........................................................................*<<",
"<o$..........................................................................=o<",
"<o@..........................................................................&X<",
"<.O..........................................................................%o<",
"< o..........................................................................$o<",
"<.o...................................X+o....................................$X<",
"<.o...................................$OO#...................................$O<",
"<.O..................................OX<<#X..................................$O<",
"<oO..................................*+<<o%..................................%X<",
"<X@.................................@o<<<<@X.................................&o<",
"<X%.................................-+<<<<O&.................................=o<",
"<o*................................#o<<<<<<$X................................*<<",
"<<=................................;+<<<<<<O*................................@<<",
"<<+...............................&+<<<<<<<<+o..............................+X<<",
"<<o+.............................X-<<<<<<<<<O; .............................&o<<",
"<<o&.............................&O<<<<<<<<<<+O............................ ;@<<",
"<<+; ...........................X-<<<<<<<<<<<+; ............................&<<<",
"<<<+X...........................*+<<<<<<<<<<<<+O...........................@O<<<",
"<<<o%..........................X=<<<<<<<<<<<<<@; ......................... ;+<<<",
"<<<@> .........................=#<<<<<<<<<<<<<<OO.........................X&<<<<",
"<<<<+O........................o%<<<<<<<<<<<<<<<@;.........................%O<<<<",
"<<<<@: .......................*@<<<<<<<<<<<<<<<<+O........................:<<<<<",
"<<<<<oo......................X+<<<<<<<<<<<<<<<<<@=.......................$O<<<<<",
"<<<<<@; .....................$#<<<<<<<<<<<<<<<<<<OO......................;+<<<<<",
"<<<<<<++....................o@<<<<<<<<<<<<<<<<<<<$%.....................%+<<<<<<",
"<<<<<<#;....................$$<<<<<<<<<<<<<<<<<<<<OO...................o$<<<<<<<",
"<<<<<<<@%..................o+X<<<<<<<<<<<<<<<<<<<<#$...................=@<<<<<<<",
"<<<<<<<<++.................$$<<<<<<<<<<<<<<<<<<<<<X+O.................#+<<<<<<<<",
"<<<<<<<<@&X...............oOo<<<<<<<<<<<<<<<<<<<<<<%%................O#<<<<<<<<<",
"<<<<<<<<<+$...............#$<<<<<<<<<<<<<<<<<<<<<<<o#O..............X%@<<<<<<<<<",
"<<<<<<<<<<$$.............o+X<<<<<<<<<<<<<<<<<<<<<<<<#$..............%$<<<<<<<<<<",
"<<<<<<<<<<+&@............@$<<<<<<<<<<<<<<<<<<<<<<<<<.#O............$@<<<<<<<<<<<",
"<<<<<<<<<<<<&@..........O$X<<<<<<<<<<<<<<<<<<<<<<<<<<#@...........$#<<<<<<<<<<<<",
"<<<<<<<<<<<<X*#.........@@<<<<<<<<<<<<<<<<<<<<<<<<<<<<%O........X%@<<<<<<<<<<<<<",
"<<<<<<<<<<<<<<*$.......o$X<<<<<<<<<<<<<<<<<<<<<<<<<<<<++........&O<<<<<<<<<<<<<<",
"<<<<<<<<<<<<<<<o&......++<<<<<<<<<<<<<<<<<<<<<<<<<<<<<o&O.....X=X<<<<<<<<<<<<<<<",
"<<<<<<<<<<<<<<<<o-o...o$.<<<<<<<<<<<<<<<<<<<<<<<<<<<<<<+O....+;X<<<<<<<<<<<<<<<<",
"<<<<<<<<<<<<<<<<<o=$ .o+<<<<<<<<<<<<<<<<<<<<<<<<<<<<<<<o%o..&+o<<<<<<<<<<<<<<<<<",
"<<<<<<<<<<<<<<<<<<<X-O%X<<<<<<<<<<<<<<<<<<<<<<<<<<<<<<<<Oo@-o<<<<<<<<<<<<<<<<<<<",
"<<<<<<<<<<<<<<<<<<<<.X%<<<<<<<<<<<<<<<<<<<<<<<<<<<<<<<<<o,o<<<<<<<<<<<<<<<<<<<<<",
"<<<<<<<<<<<<<<<<<<<<<<<<<<<<<<<<<<<<<<<<<<<<<<<<<<<<<<<<<<<<<<<<<<<<<<<<<<<<<<<<",
"<<<<<<<<<<<<<<<<<<<<<<<<<<<<<<<<<<<<<<<<<<<<<<<<<<<<<<<<<<<<<<<<<<<<<<<<<<<<<<<<"
};
