/* XPM */
static char *result[] = {
/* columns rows colors chars-per-pixel */
"80 76 19 1 ",
"  c #FFCB00",
". c #FFCC00",
"X c #FFCD00",
"o c #FFCE00",
"O c #FFCF00",
"+ c #FFD000",
"@ c #FFD100",
"# c #FFD200",
"$ c #FFD300",
"% c #FFD400",
"& c #FFD500",
"* c #FFD600",
"= c gold",
"- c #FFD800",
"; c #FFD900",
": c #FFDA00",
"> c #FFDB00",
", c #FFDD00",
"< c None",
/* pixels */
"<<<<<<<<<<<<<<<<<<<<<<<<<<<<<<<<<<<<<<<<<<<<<<<<<<<<<<<<<<<<<<<<<<<<<<<<<<<<<<<<",
"<<<<<<<<<<<<<<<<<<<<<<<<<<<<<<<<<<<<<<<<<<<<<<<<<<<<<<<<<<<<<<<<<<<<<<<<<<<<<<<<",
"<<<<<<<<<<<<<<<<<<<<<o,o<<<<<<<<<<<<<<<<<<<<<<<<<<<<<<<<<%X.<<<<<<<<<<<<<<<<<<<<",
"<<<<<<<<<<<<<<<<<<<o-@oO<<<<<<<<<<<<<<<<<<<<<<<<<<<<<<<<X%O-X<<<<<<<<<<<<<<<<<<<",
"<<<<<<<<<<<<<<<<<o+&..o%o<<<<<<<<<<<<<<<<<<<<<<<<<<<<<<<+o. $=o<<<<<<<<<<<<<<<<<",
"<<<<<<<<<<<<<<<<X;+....O+<<<<<<<<<<<<<<<<<<<<<<<<<<<<<<.$o...o-o<<<<<<<<<<<<<<<<",
"<<<<<<<<<<<<<<<X=X.....O&o<<<<<<<<<<<<<<<<<<<<<<<<<<<<<++......&o<<<<<<<<<<<<<<<",
"<<<<<<<<<<<<<<O&........++<<<<<<<<<<<<<<<<<<<<<<<<<<<<X$o.......$*<<<<<<<<<<<<<<",
"<<<<<<<<<<<<<@%X........O%<<<<<<<<<<<<<<<<<<<<<<<<<<<<@@.........#*X<<<<<<<<<<<<",
"<<<<<<<<<<<<#$...........@#<<<<<<<<<<<<<<<<<<<<<<<<<<X$O..........@&<<<<<<<<<<<<",
"<<<<<<<<<<<@$............O#.<<<<<<<<<<<<<<<<<<<<<<<<<$@............@&+<<<<<<<<<<",
"<<<<<<<<<<$%..............$#<<<<<<<<<<<<<<<<<<<<<<<<X+o.............$$<<<<<<<<<<",
"<<<<<<<<<@%X..............O#o<<<<<<<<<<<<<<<<<<<<<<<$#...............$+<<<<<<<<<",
"<<<<<<<<<#O................%%<<<<<<<<<<<<<<<<<<<<<<oOo...............X&@<<<<<<<<",
"<<<<<<<<+#.................O+X<<<<<<<<<<<<<<<<<<<<<$$.................++<<<<<<<<",
"<<<<<<<@=...................$#<<<<<<<<<<<<<<<<<<<<X+o..................%@<<<<<<<",
"<<<<<<<$o...................OO<<<<<<<<<<<<<<<<<<<<$$....................;#<<<<<<",
"<<<<<<+%.....................%$<<<<<<<<<<<<<<<<<<<@o....................++<<<<<<",
"<<<<<+;......................OO<<<<<<<<<<<<<<<<<<#$..................... ;@<<<<<",
"<<<<<O$.......................=@<<<<<<<<<<<<<<<<<+X......................oo<<<<<",
"<<<<<:........................O+<<<<<<<<<<<<<<<<@*....................... :@<<<<",
"<<<<O%.........................;@<<<<<<<<<<<<<<<%o........................O+<<<<",
"<<<<&X.........................OO<<<<<<<<<<<<<<#=......................... >@<<<",
"<<<+; ......................... ;@<<<<<<<<<<<<<=X..........................%o<<<",
"<<<O@...........................O+<<<<<<<<<<<<+*...........................X+<<<",
"<<<&............................ ;+<<<<<<<<<<<-X........................... ;+<<",
"<<@; ............................O+<<<<<<<<<<O&.............................&o<<",
"<<o&............................. ;O<<<<<<<<<-X.............................+o<<",
"<<X+..............................o+<<<<<<<<+&...............................+<<",
"<<@................................*O<<<<<<+;................................=<<",
"<<*................................X$<<<<<<o#................................*o<",
"<o=.................................&O<<<<+-.................................%X<",
"<o&.................................X@<<<<o@.................................@X<",
"<X%..................................%o<<+*..................................Oo<",
"<O$..................................X#<<XO..................................O.<",
"<O$...................................#OO$...................................o.<",
"<X$....................................o+X...................................o.<",
"<o$..........................................................................o <",
"<o%..........................................................................O.<",
"<X&..........................................................................@o<",
"<o=..........................................................................$o<",
"<<*..........................................................................&O<",
"<<#..........................................................................=<<",
"<<Xo.........................................................................$<<",
"<<o#........................................................................oo<<",
"<<O=........................................................................#O<<",
"<<<-....................................................................... -+<<",
"<<<X+......................................................................X#<<<",
"<<<+- .....................................................................$O<<<",
"<<<<-..................................................................... >@<<<",
"<<<<o#....................................................................o+<<<<",
"<<<<#> .................................................................. -O<<<<",
"<<<<<++...................................................................=<<<<<",
"<<<<<@> ................................................................ =@<<<<<",
"<<<<<<+@................................................................o&<<<<<<",
"<<<<<<O;............................................................... ;+<<<<<<",
"<<<<<<<@&..............................................................@+<<<<<<<",
"<<<<<<<<++............................................................X*+<<<<<<<",
"<<<<<<<<@%............................................................*@<<<<<<<<",
"<<<<<<<<<@%..........................................................@+<<<<<<<<<",
"<<<<<<<<<<##........................................................O+<<<<<<<<<<",
"<<<<<<<<<<o@@......................................................O#o<<<<<<<<<<",
"<<<<<<<<<<<o$+....................................................o$@<<<<<<<<<<<",
"<<<<<<<<<<<<o$+..................................................o&#<<<<<<<<<<<<",
"<<<<<<<<<<<<<+#@................................................O$@<<<<<<<<<<<<<",
"<<<<<<<<<<<<<<O+$X.............................................@%@<<<<<<<<<<<<<<",
"<<<<<<<<<<<<<<<<+-o..........................................X&o<<<<<<<<<<<<<<<<",
"<<<<<<<<<<<<<<<<<+%$....................................... @-O<<<<<<<<<<<<<<<<<",
"<<<<<<<<<<<<<<<<<<<O;O .................................. X-oo<<<<<<<<<<<<<<<<<<",
"<<<<<<<<<<<<<<<<<<<<@o;o .............................. .*&O<<<<<<<<<<<<<<<<<<<<",
"<<<<<<<<<<<<<<<<<<<<<<X$;o........................... X=-O<<<<<<<<<<<<<<<<<<<<<<",
"<<<<<<<<<<<<<<<<<<<<<<<<O+>$X.......................#>#o<<<<<<<<<<<<<<<<<<<<<<<<",
"<<<<<<<<<<<<<<<<<<<<<<<<<<+X@;$o................o#-&XO<<<<<<<<<<<<<<<<<<<<<<<<<<",
"<<<<<<<<<<<<<<<<<<<<<<<<<<<<<.XX$=*$@OooooO+#&=*o.o<<<<<<<<<<<<<<<<<<<<<<<<<<<<<",
"<<<<<<<<<<<<<<<<<<<<<<<<<<<<<<<<<<XXX.X.XX.. X.<<<<<<<<<<<<<<<<<<<<<<<<<<<<<<<<<",
"<<<<<<<<<<<<<<<<<<<<<<<<<<<<<<<<<<<<<<<<<<<<<<<<<<<<<<<<<<<<<<<<<<<<<<<<<<<<<<<<"
};
